
        <svg xmlns="http://www.w3.org/2000/svg" xmlns:xlink="http://www.w3.org/1999/xlink" version="1.1" width="3187.79401183502" 
        height="611.6273665256922" viewBox="0 0 3187.79401183502 611.6273665256922">
			<rect fill="#fce38a" width="3187.79401183502" height="611.6273665256922"/>
			<g transform="scale(9.38970059175096) translate(10, 10)">
				<defs id="SvgjsDefs2140"></defs><g id="SvgjsG2141" featureKey="Df7oLJ-0" transform="matrix(0.6944415362360653,0,0,0.6944415362360653,-3.4722076811803264,-12.153314980830073)" fill="#111111"><g xmlns="http://www.w3.org/2000/svg"><path d="M32.333,65.361c8.958,1.709,15.884,6.871,15.884,6.871V24.876c0,0-6.965-5.167-15.939-6.884   c-9.089-1.738-20.957,1.695-20.957,1.695v47.36C11.32,67.047,23.226,63.617,32.333,65.361z"></path><path d="M87.912,67.219V19.863c0,0-9.15-2.892-17.676-2.029v32.216l-6.393-6.502l-6.396,6.502V21.774   c-3.475,1.7-5.664,3.271-5.664,3.271V72.4c0,0,7.148-5.156,16.105-6.869C76.996,63.792,87.912,67.219,87.912,67.219z"></path><path d="M91.412,23.99v48.136c0,0-13.762-3.849-23.992-1.893c-9.158,1.748-15.896,6.694-17.032,7.567v0.145   c0,0-0.033-0.023-0.097-0.072c-0.06,0.049-0.094,0.072-0.094,0.072v-0.145c-1.136-0.873-7.874-5.815-17.032-7.567   c-10.225-1.96-25.336,1.893-25.336,1.893V23.847C6.947,23.979,6.008,24.118,5,24.27v51.857c0,0,16.468-4.217,27.666-2.076   c11.02,2.107,17.671,8.449,17.671,8.449s6.654-6.342,17.671-8.449C79.211,71.907,95,76.127,95,76.127V24.496   C95,24.496,93.625,24.263,91.412,23.99z"></path></g></g><g id="SvgjsG2142" featureKey="Ua4uQk-0" transform="matrix(1.8807333519840939,0,0,1.8807333519840939,80.30733980385361,-4.908255593836257)" fill="#111111"><path d="M13.02 18.5 c-1.26 1.12 -2.9 1.7 -4.8 1.7 c-3.96 0 -7.32 -2.94 -7.32 -7.2 s3.36 -7.2 7.32 -7.2 c1.88 0 3.5 0.6 4.72 1.66 l-1.94 2.18 c-0.7 -0.48 -1.64 -0.82 -2.58 -0.82 c-2.46 0 -4.16 1.76 -4.16 4.18 s1.7 4.18 4.16 4.18 c0.98 0 1.98 -0.38 2.68 -0.94 z M19.9 9.42 c2.36 0 5.48 1.78 5.48 5.42 c0 3.66 -3.12 5.36 -5.48 5.36 s-5.48 -1.7 -5.48 -5.36 c0 -3.64 3.12 -5.42 5.48 -5.42 z M19.9 12.2 c-1.2 0 -2.42 0.92 -2.42 2.64 c0 1.66 1.22 2.58 2.42 2.58 s2.44 -0.92 2.44 -2.58 c0 -1.72 -1.24 -2.64 -2.44 -2.64 z M34.58 5.859999999999999 l3.16 0 l0 5.08 l0 9.06 l-3.16 0 l0 -1.04 c-0.14 0.36 -1.08 1.24 -2.68 1.24 c-2.38 0 -5.12 -1.7 -5.12 -5.42 c0 -3.58 2.74 -5.36 5.12 -5.36 c1.6 0 2.54 0.92 2.68 1.14 l0 -4.7 z M32.36 17.42 c1.3 0 2.36 -0.9 2.36 -2.64 c0 -1.68 -1.06 -2.58 -2.36 -2.58 c-1.36 0 -2.52 0.92 -2.52 2.58 c0 1.72 1.16 2.64 2.52 2.64 z M44.94 9.42 c2.36 0 5.66 1.78 5 6.48 l-7.26 0 c0.36 1.08 1.3 1.64 2.56 1.64 c1.28 0 1.68 -0.28 2.4 -0.58 l1.74 1.68 c-0.92 0.9 -2.16 1.56 -4.26 1.56 c-2.58 0 -5.66 -1.78 -5.66 -5.36 c0 -3.64 3.12 -5.42 5.48 -5.42 z M44.94 12.120000000000001 c-0.9 0 -1.82 0.52 -2.22 1.56 l4.42 0 c-0.32 -1.04 -1.3 -1.56 -2.2 -1.56 z M60.92 8.94 l-5.68 0 l0 2.66 l4.66 0 l0 2.74 l-4.66 0 l0 5.66 l-3.32 0 l0 -14 l9 0 l0 2.94 z M69.52 9.6 l3.16 0 l0 10.4 l-3.16 0 l0 -1.04 c-0.14 0.36 -1.08 1.24 -2.68 1.24 c-2.38 0 -5.12 -1.7 -5.12 -5.42 c0 -3.58 2.74 -5.36 5.12 -5.36 c1.6 0 2.54 0.92 2.68 1.14 l0 -0.96 z M67.3 17.42 c1.3 0 2.36 -0.9 2.36 -2.64 c0 -1.68 -1.06 -2.58 -2.36 -2.58 c-1.36 0 -2.52 0.92 -2.52 2.58 c0 1.72 1.16 2.64 2.52 2.64 z M79.83999999999999 9.42 c1.9 0 3.5 0.8 4.48 2.48 l-2.4 1.14 c-0.52 -0.44 -0.94 -0.84 -2.04 -0.84 c-1.2 0 -2.42 0.92 -2.42 2.62 c0 1.68 1.22 2.56 2.42 2.56 c1.1 0 1.52 -0.36 2.04 -0.8 l2.44 1.14 c-1.02 1.68 -2.58 2.44 -4.52 2.44 c-2.32 0 -5.44 -1.66 -5.44 -5.34 c0 -3.62 3.12 -5.4 5.44 -5.4 z M91.03999999999999 17.36 c0.56 0 0.96 -0.08 1.4 -0.2 l0 2.62 c-0.44 0.2 -1.16 0.34 -2.22 0.34 c-1.74 0 -3.2 -0.58 -3.2 -3.78 l0 -4.14 l-1.46 0 l0 -2.6 l1.46 0 l0 -2.44 l3.16 0 l0 2.44 l2.22 0 l0 2.6 l-2.22 0 l0 4.14 c0 0.46 0.12 1.02 0.86 1.02 z M99.28 9.42 c2.36 0 5.48 1.78 5.48 5.42 c0 3.66 -3.12 5.36 -5.48 5.36 s-5.48 -1.7 -5.48 -5.36 c0 -3.64 3.12 -5.42 5.48 -5.42 z M99.28 12.2 c-1.2 0 -2.42 0.92 -2.42 2.64 c0 1.66 1.22 2.58 2.42 2.58 s2.44 -0.92 2.44 -2.58 c0 -1.72 -1.24 -2.64 -2.44 -2.64 z M113.16 9.44 c0.28 0 0.56 0 0.82 0.06 l0 3.02 c-0.24 -0.06 -0.52 -0.06 -0.72 -0.06 c-1.92 0 -3.46 1.38 -3.62 3.3 l0 4.24 l-3.16 0 l0 -10.4 l3.16 0 l0 2.54 c0.48 -1.56 1.68 -2.7 3.52 -2.7 z M124.03999999999999 9.56 l3.14 0 l-6.36 14.24 l-3.16 0 l1.92 -4.16 l-4.5 -10.08 l3.14 0 l2.92 6.68 z"></path></g>
			</g>
		</svg>
	